<svg xmlns="http://www.w3.org/2000/svg" viewBox="0 0 24 24" width="48" height="48">
    <path fill="none" d="M0 0h24v24H0z"/>
    <path fill="#8B9F3D" d="M12 2C7.58 2 4 5.58 4 10c0 1.77.75 3.34 1.92 4.45L5.41 16c-.5.39-.5 1.12-.01 1.52l3.12 2.89-2.1 2.1c-.39.39-.39 1.02 0 1.41l1.41 1.41c.39.39 1.02.39 1.41 0l2.1-2.1 2.88 3.12c.4.5 1.13.49 1.52-.01l2.45-3.08C19.25 13.34 20 11.77 20 10c0-4.42-3.58-8-8-8zM9.34 13.06l1.41-1.41 3.57 3.57c-.6.43-1.28.77-1.98 1.03l-2.72-3.19c-.41-.48-.97-.77-1.56-.77s-1.15.29-1.56.77L9.34 13.06z"/>
</svg>
