<svg xmlns="http://www.w3.org/2000/svg" viewBox="0 0 24 24" width="48" height="48">
    <path fill="none" d="M0 0h24v24H0z"/>
    <path fill="#FF5722" d="M12 2C9.52 2 7.19 3.57 7.02 6.12C6.89 7.26 7.53 8.33 8.47 9.02C9.32 9.63 9.91 10.59 10.6 11.45C11.4 12.42 12.12 13.26 12.5 14.21C12.88 13.26 13.6 12.42 14.4 11.45C15.09 10.59 15.68 9.63 16.53 9.02C17.47 8.33 18.11 7.26 17.98 6.12C17.81 3.57 15.48 2 13 2C12.22 2 11.47 2.22 10.76 2.61C10.04 3.01 9.37 3.56 8.85 4.17C8.15 5.12 7.75 6.34 8.15 7.49C8.52 8.57 9.42 9.31 10.34 9.47C10.77 9.57 11.22 9.42 11.56 9.14C12.04 8.66 12.29 7.95 12.29 7.16C12.29 6.57 12.55 6.02 12.97 5.61C13.57 5.03 14.45 4.98 15.12 5.42C15.86 5.95 16.32 7.04 16.11 8.16C15.67 9.78 14.24 10.97 13.33 11.63C13.56 11.08 13.99 10.54 14.5 10.15C15.06 9.73 15.28 9.11 15.17 8.49C15.06 7.87 14.61 7.35 14.02 7.15C13.67 7.04 13.35 7.13 13.13 7.41C12.92 7.68 12.87 8.04 12.99 8.39C13.16 9.04 13.72 9.39 14.34 9.24C14.95 9.09 15.16 8.47 14.95 7.87C14.72 7.27 14.02 6.99 13.43 7.11C12.91 7.21 12.57 7.73 12.61 8.26C12.64 8.78 13.03 9.14 13.54 9.08C14.05 9.03 14.27 8.51 14.22 8C14.18 7.51 13.7 7.19 13.22 7.31C12.63 7.47 12.37 8.11 12.54 8.66C12.91 9.65 13.64 10.42 14.48 10.9C15.33 11.39 16.22 11.29 16.83 10.68C17.5 10.05 17.68 9.1 17.41 8.19C16.94 7.06 16.08 6.49 15.15 6.38C14.28 6.27 13.59 6.73 13.29 7.54C13.02 8.29 13.09 9.13 13.46 9.79C13.98 10.8 14.96 11.22 15.92 10.99C16.9 10.76 17.42 9.78 17.19 8.82C16.88 7.68 15.86 7.26 15.04 7.49C14.68 7.59 14.33 7.99 14.33 8.44C14.33 8.93 14.71 9.28 15.22 9.28C15.75 9.28 16.08 8.93 16.15 8.43C16.22 7.91 15.83 7.56 15.42 7.56C14.94 7.56 14.69 7.94 14.69 8.42C14.69 8.94 14.99 9.23 15.41 9.27C15.8 9.31 16.11 9.67 16.16 10.05C16.21 10.44 15.87 10.75 15.47 10.72C15.06 10.7 14.78 10.38 14.78 9.99C14.78 9.58 15.16 9.29 15.57 9.33C15.97 9.37 16.29 9.74 16.29 10.17C16.29 10.61 15.95 10.91 15.55 10.95C15.17 10.98 14.91 10.61 14.93 10.25C14.95 9.88 15.35 9.61 15.74 9.68C16.17 9.76 16.44 10.1 16.5 10.43C16.58 10.86 16.33 11.25 15.88 11.24C15.38 11.23 15.14 10.87 15.16 10.43C15.18 9.98 15.59 9.62 16.06 9.57C16.59 9.51 16.99 9.8 16.98 10.34C16.98 10.72 16.61 11.03 16.18 11.06C15.88 11.09 15.61 10.81 15.52 10.46C15.47 10.17 15.74 9.88 16.03 9.81C16.23 9.75 16.48 9.96 16.47 10.16C16.46 10.51 16.15 10.76 15.8 10.74C15.47 10.71 15.18 10.39 15.2 10.05C15.22 9.7 15.53 9.41 15.91 9.37C16.38 9.32 16.74 9.62 16.75 10.08C16.77 10.51 16.44 10.84 16.02 10.87C15.55 10.91 15.32 10.56 15.32 10.09C15.32 9.65 15.58 9.35 16.03 9.29C16.5 9.23 16.94 9.47 16.96 9.91C16.97 10.34 16.64 10.66 16.2 10.71C15.83 10.76 15.56 10.43 15.57 10.06C15.58 9.63 15.98 9.28 16.45 9.22C16.88 9.17 17.23 9.5 17.24 9.94C17.24 10.31 16.96 10.6 16.61 10.62C16.17 10.65 15.89 10.26 15.89 9.85C15.9 9.53 16.26 9.2 16.66 9.2C17.05 9.2 17.34 9.45 17.42 9.85C17.49 10.22 17.19 10.54 16.83 10.61C16.39 10.68 16.08 10.33 16.08 9.92C16.08 9.64 16.32 9.35 16.57 9.29C16.89 9.22 17.13 9.52 17.18 9.83C17.2 10.15 16.94 10.43 16.63 10.5C16.36 10.57 16.15 10.23 16.16 9.92C16.18 9.67 16.45 9.47 16.72 9.43C17.04 9.38 17.32 9.61 17.33 9.93C17.33 10.29 17.04 10.57 16.74 10.62C16.5 10.65 16.25 10.39 16.22 10.14C16.18 9.85 16.46 9.59 16.74 9.56C16.98 9.54 17.13 9.74 17.12 9.98C17.11 10.21 16.84 10.4 16.64 10.34C16.35 10.28 16.15 10.04 16.12 9.74C16.1 9.42 16.36 9.14 16.66 9.09C16.99 9.03 17.27 9.23 17.27 9.56C17.28 9.85 17.05 10.1 16.74 10.11C16.39 10.12 16.09 9.88 16.1 9.56Z"/>
</svg>
