<svg xmlns="http://www.w3.org/2000/svg" viewBox="0 0 24 24" width="48" height="48">
    <path fill="none" d="M0 0h24v24H0z"/>
    <path fill="#9C27B0" d="M12 2C7.03 2 4 5.6 4 9c0 2.1 1.13 4.56 2.86 6.02-.62 1.05-1.03 2.39-1.16 3.61-.18 1.18.24 2.35 1.06 3.16 1.14 1.14 2.87 1.56 4.41 1.11.91-.23 1.78-.62 2.53-1.12.75.5 1.62.89 2.53 1.12 1.53.45 3.27.03 4.41-1.11.82-.81 1.23-1.98 1.06-3.16-.12-1.22-.54-2.56-1.16-3.61C18.87 13.56 20 11.1 20 9c0-3.4-3.03-7-8-7zm0 12c-1.88 0-3.41-1.54-3.41-3.41 0-1.36 1.16-2.45 2.57-2.69-.43-.83-.6-1.79-.56-2.75.06-1.07.43-2.06.97-2.87-.94-.21-1.95-.44-2.88-.61 0 0 1.33-2.27 3.56-3.1 1.24-.61 2.63-.95 4.06-.95s2.82.34 4.06.95c2.23.83 3.56 3.1 3.56 3.1-.93.17-1.94.4-2.88.61.54.81.91 1.8.97 2.87.04.96-.13 1.92-.56 2.75 1.41.24 2.57 1.33 2.57 2.69 0 1.87-1.53 3.41-3.41 3.41z"/>
</svg>
