<svg xmlns="http://www.w3.org/2000/svg" viewBox="0 0 24 24" width="48" height="48">
    <path fill="none" d="M0 0h24v24H0z"/>
    <path fill="#4CAF50" d="M12 2C7.03 2 2 6 2 12c0 6 5.03 10 10 10s10-4 10-10c0-6-5.03-10-10-10zm4.95 5.05c-.63 0-1.23.24-1.69.69l-3.95 3.95c-.88.88-.88 2.3 0 3.18l.88.88-1.88 1.88c-.88.88-2.3.88-3.18 0s-.88-2.3 0-3.18l1.88-1.88-.88-.88c-.88-.88-2.3-.88-3.18 0l-3.95 3.95c-.45.45-.69 1.06-.69 1.69s.24 1.23.69 1.69c.9.9 2.36 1.17 3.54.73 1.03-.38 1.89-1.24 2.27-2.27.44-1.18.17-2.64-.73-3.54-.45-.45-1.06-.69-1.69-.69s-1.23.24-1.69.69c-.88.88-.88 2.3 0 3.18l.88.88-1.88 1.88c-.88.88-.88 2.3 0 3.18s2.3.88 3.18 0l1.88-1.88.88.88c.88.88 2.3.88 3.18 0l3.95-3.95c.45-.45.69-1.06.69-1.69s-.24-1.23-.69-1.69c-.9-.9-2.36-1.17-3.54-.73-1.03.38-1.89 1.24-2.27 2.27-.44 1.18-.17 2.64.73 3.54.45.45 1.06.69 1.69.69s1.23-.24 1.69-.69c.88-.88.88-2.3 0-3.18l-.88-.88 1.88-1.88c.88-.88 2.3-.88 3.18 0s.88 2.3 0 3.18l-1.88 1.88.88.88c.88.88 2.3.88 3.18 0l3.95-3.95c.45-.45.69-1.06.69-1.69s-.24-1.23-.69-1.69c-.9-.9-2.36-1.17-3.54-.73-1.03.38-1.89 1.24-2.27 2.27-.44 1.18-.17 2.64.73 3.54.45.45 1.06.69 1.69.69s1.23-.24 1.69-.69c.88-.88.88-2.3 0-3.18l-.88-.88 1.88-1.88c.88-.88 2.3-.88 3.18 0s.88 2.3 0 3.18l-1.88 1.88.88.88c.88.88 2.3.88 3.18 0l3.95-3.95c.45-.45.69-1.06.69-1.69s-.24-1.23-.69-1.69c-.9-.9-2.36-1.17-3.54-.73-1.03.38-1.89 1.24-2.27 2.27-.44 1.18-.17 2.64.73 3.54.45.45 1.06.69 1.69.69s1.23-.24 1.69-.69c.88-.88.88-2.3 0-3.18l-.88-.88 1.88-1.88c.88-.88 2.3-.88 3.18 0s.88 2.3 0 3.18l-1.88 1.88.88.88c.88.88 2.3.88 3.18 0l3.95-3.95c.45-.45.69-1.06.69-1.69s-.24-1.23-.69-1.69c-.9-.9-2.36-1.17-3.54-.73-1.03.38-1.89 1.24-2.27 2.27-.44 1.18-.17 2.64.73 3.54.45.45 1.06.69 1.69.69s1.23-.24 1.69-.69c.88-.88.88-2.3 0-3.18l-.88-.88 1.88-1.88c.88-.88 2.3-.88 3.18 0s.88 2.3 0 3.18l-1.88 1.88.88.88c.88.88 2.3.88 3.18 0l3.95-3.95c.45-.45.69-1.06.69-1.69s-.24-1.23-.69-1.69c-.9-.9-2.36-1.17-3.54-.73-1.03.38-1.89 1.24-2.27 2.27-.44 1.18-.17 2.64.73 3.54.45.45 1.06.69 1.69.69s1.23-.24 1.69-.69c.88-.88.88-2.3 0-3.18z"/>
</svg>
